# xmcd
#
# Track frame offsets:
#	150
#	12703
#	26988
#	39189
#	52984
#	64276
#	73598
#	83407
#	92601
#	104498
#
# Disc length: 1541 seconds
# Revision: 1
# Processed by: cddbd v1.5.2PL0 Copyright (c) Steve Scherf et al.
# Submitted via: dBpowerAMP V12.0
#
DISCID=7e06030a
DTITLE=MoeBandy,AKAMarionFranklinBandyJr,Meridian,MS - Songs Of The West
DYEAR=2002
DGENRE=Country
TTITLE0=Home On The Range
TTITLE1=Red River Valley
TTITLE2=Streets Of Laredo
TTITLE3=Bury Me Not On The Lonr Prairie
TTITLE4=Back In The Saddle Again
TTITLE5=Deep In The Heart Of Texas
TTITLE6=Ole Faithful
TTITLE7=Tumbling Tumbleweed
TTITLE8=High Noon (do Not Foresake Me)
TTITLE9=Good Old Paint
EXTD=
EXTT0=
EXTT1=
EXTT2=
EXTT3=
EXTT4=
EXTT5=
EXTT6=
EXTT7=
EXTT8=
EXTT9=
PLAYORDER=
